<mxfile host="app.diagrams.net" modified="2024-04-09T22:46:21.458Z" agent="Mozilla/5.0 (Windows NT 10.0; Win64; x64) AppleWebKit/537.36 (KHTML, like Gecko) Chrome/121.0.0.0 Safari/537.36" version="24.2.3" etag="cbDh_Ou5VSql59Kv2rmH" type="github">
  <diagram name="Trang-1" id="e7yxqXNzmUUuGCJJwLP8">
    <mxGraphModel>
      <root>
        <mxCell id="0" />
        <mxCell id="1" parent="0" />
      </root>
    </mxGraphModel>
  </diagram>
</mxfile>
